
<global>
ampeg_release=0.50
</global>

<group>
group_label=RR1
seq_length=4
seq_position=1

<region>
hivel=90
key=A#3
lovel=46
sample=Baritone_staccato_MF_A#3_RR1.opus
</region>

<region>
hivel=90
key=A3
lovel=46
sample=Baritone_staccato_MF_A3_RR1.opus
</region>

<region>
hikey=B4
hivel=90
lokey=A4
lovel=46
pitch_keycenter=A4
sample=Baritone_staccato_MF_A4_RR1.opus
</region>

<region>
hivel=90
key=B3
lovel=46
sample=Baritone_staccato_MF_B3_RR1.opus
</region>

<region>
hivel=90
key=C#4
lovel=46
sample=Baritone_staccato_MF_C#4_RR1.opus
</region>

<region>
hivel=90
key=C4
lovel=46
sample=Baritone_staccato_MF_C4_RR1.opus
</region>

<region>
hivel=90
key=D#4
lovel=46
sample=Baritone_staccato_MF_D#4_RR1.opus
</region>

<region>
hivel=90
key=D4
lovel=46
offset=14
sample=Baritone_staccato_MF_D4_RR1.opus
</region>

<region>
hivel=90
key=E4
lovel=46
sample=Baritone_staccato_MF_E4_RR1.opus
</region>

<region>
hivel=90
key=F#4
lovel=46
offset=30
sample=Baritone_staccato_MF_F#4_RR1.opus
</region>

<region>
hivel=90
key=F4
lovel=46
offset=73
sample=Baritone_staccato_MF_F4_RR1.opus
</region>

<region>
hivel=90
key=G#4
lovel=46
offset=210
sample=Baritone_staccato_MF_G#4_RR1.opus
</region>

<region>
hivel=90
key=G4
lovel=46
offset=3
sample=Baritone_staccato_MF_G4_RR1.opus
</region>

<region>
hivel=90
key=F#3
lovel=46
sample=Baritone_staccato_MF_F#3_RR1.opus
</region>

<region>
hivel=90
key=G#3
lovel=46
sample=Baritone_staccato_MF_G#3_RR1.opus
</region>

<region>
hivel=90
key=G3
lovel=46
sample=Baritone_staccato_MF_G3_RR1.opus
</region>

<region>
hivel=90
key=D#3
lovel=46
sample=Baritone_staccato_MF_D#3_RR1.opus
</region>

<region>
hivel=90
key=E3
lovel=46
sample=Baritone_staccato_MF_E3_RR1.opus
</region>

<region>
hivel=90
key=F3
lovel=46
offset=301
sample=Baritone_staccato_MF_F3_RR1.opus
</region>

<region>
hivel=90
key=A#2
lovel=46
sample=Baritone_staccato_MF_A#2_RR1.opus
</region>

<region>
hivel=90
key=A2
lovel=46
sample=Baritone_staccato_MF_A2_RR1.opus
</region>

<region>
hivel=90
key=B2
lovel=46
sample=Baritone_staccato_MF_B2_RR1.opus
</region>

<region>
hivel=90
key=C#3
lovel=46
sample=Baritone_staccato_MF_C#3_RR1.opus
</region>

<region>
hivel=90
key=C3
lovel=46
sample=Baritone_staccato_MF_C3_RR1.opus
</region>

<region>
hivel=90
key=D3
lovel=46
sample=Baritone_staccato_MF_D3_RR1.opus
</region>

<region>
hivel=90
key=E2
lovel=46
sample=Baritone_staccato_MF_E2_RR1.opus
</region>

<region>
hivel=90
key=F#2
lovel=46
sample=Baritone_staccato_MF_F#2_RR1.opus
</region>

<region>
hivel=90
key=F2
lovel=46
sample=Baritone_staccato_MF_F2_RR1.opus
</region>

<region>
hivel=90
key=G#2
lovel=46
sample=Baritone_staccato_MF_G#2_RR1.opus
</region>

<region>
hivel=90
key=G2
lovel=46
sample=Baritone_staccato_MF_G2_RR1.opus
</region>

<region>
hivel=90
key=C#2
lovel=46
sample=Baritone_staccato_MF_C#2_RR1.opus
</region>

<region>
hivel=90
key=C2
lovel=46
offset=501
sample=Baritone_staccato_MF_C2_RR1.opus
</region>

<region>
hivel=90
key=D#2
lovel=46
sample=Baritone_staccato_MF_D#2_RR1.opus
</region>

<region>
hivel=90
key=D2
lovel=46
sample=Baritone_staccato_MF_D2_RR1.opus
</region>

<region>
hikey=B4
hivel=127
lokey=A4
lovel=91
pitch_keycenter=A4
sample=Baritone_staccato_FF_A4_RR1.opus
</region>

<region>
hivel=127
key=D#4
lovel=91
offset=6
sample=Baritone_staccato_FF_D#4_RR1.opus
</region>

<region>
hivel=127
key=D4
lovel=91
offset=61
sample=Baritone_staccato_FF_D4_RR1.opus
</region>

<region>
hivel=127
key=E4
lovel=91
sample=Baritone_staccato_FF_E4_RR1.opus
</region>

<region>
hivel=127
key=F#4
lovel=91
offset=33
sample=Baritone_staccato_FF_F#4_RR1.opus
</region>

<region>
hivel=127
key=F4
lovel=91
sample=Baritone_staccato_FF_F4_RR1.opus
</region>

<region>
hivel=127
key=G#4
lovel=91
offset=98
sample=Baritone_staccato_FF_G#4_RR1.opus
</region>

<region>
hivel=127
key=G4
lovel=91
offset=354
sample=Baritone_staccato_FF_G4_RR1.opus
</region>

<region>
hivel=127
key=A#3
lovel=91
sample=Baritone_staccato_FF_A#3_RR1.opus
</region>

<region>
hivel=127
key=B3
lovel=91
sample=Baritone_staccato_FF_B3_RR1.opus
</region>

<region>
hivel=127
key=C#4
lovel=91
sample=Baritone_staccato_FF_C#4_RR1.opus
</region>

<region>
hivel=127
key=C4
lovel=91
sample=Baritone_staccato_FF_C4_RR1.opus
</region>

<region>
hivel=127
key=A3
lovel=91
sample=Baritone_staccato_FF_A3_RR1.opus
</region>

<region>
hivel=127
key=G#3
lovel=91
sample=Baritone_staccato_FF_G#3_RR1.opus
</region>

<region>
hivel=127
key=G3
lovel=91
sample=Baritone_staccato_FF_G3_RR1.opus
</region>

<region>
hivel=127
key=E3
lovel=91
sample=Baritone_staccato_FF_E3_RR1.opus
</region>

<region>
hivel=127
key=F#3
lovel=91
sample=Baritone_staccato_FF_F#3_RR1.opus
</region>

<region>
hivel=127
key=F3
lovel=91
sample=Baritone_staccato_FF_F3_RR1.opus
</region>

<region>
hivel=127
key=C#3
lovel=91
offset=9
sample=Baritone_staccato_FF_C#3_RR1.opus
</region>

<region>
hivel=127
key=C3
lovel=91
offset=157
sample=Baritone_staccato_FF_C3_RR1.opus
</region>

<region>
hivel=127
key=D#3
lovel=91
sample=Baritone_staccato_FF_D#3_RR1.opus
</region>

<region>
hivel=127
key=D3
lovel=91
offset=151
sample=Baritone_staccato_FF_D3_RR1.opus
</region>

<region>
hivel=127
key=A#2
lovel=91
offset=176
sample=Baritone_staccato_FF_A#2_RR1.opus
</region>

<region>
hivel=127
key=A2
lovel=91
offset=255
sample=Baritone_staccato_FF_A2_RR1.opus
</region>

<region>
hivel=127
key=B2
lovel=91
offset=92
sample=Baritone_staccato_FF_B2_RR1.opus
</region>

<region>
hivel=127
key=C#2
lovel=91
offset=561
sample=Baritone_staccato_FF_C#2_RR1.opus
</region>

<region>
hivel=127
key=C2
lovel=91
offset=226
sample=Baritone_staccato_FF_C2_RR1.opus
</region>

<region>
hivel=127
key=D#2
lovel=91
offset=634
sample=Baritone_staccato_FF_D#2_RR1.opus
</region>

<region>
hivel=127
key=D2
lovel=91
sample=Baritone_staccato_FF_D2_RR1.opus
</region>

<region>
hivel=127
key=E2
lovel=91
offset=719
sample=Baritone_staccato_FF_E2_RR1.opus
</region>

<region>
hivel=127
key=F#2
lovel=91
offset=413
sample=Baritone_staccato_FF_F#2_RR1.opus
</region>

<region>
hivel=127
key=F2
lovel=91
offset=56
sample=Baritone_staccato_FF_F2_RR1.opus
</region>

<region>
hivel=127
key=G#2
lovel=91
offset=320
sample=Baritone_staccato_FF_G#2_RR1.opus
</region>

<region>
hivel=127
key=G2
lovel=91
offset=749
sample=Baritone_staccato_FF_G2_RR1.opus
</region>

<region>
hivel=45
key=A#3
lovel=0
sample=Baritone_staccato_PP_A#3_RR1.opus
</region>

<region>
hivel=45
key=A3
lovel=0
sample=Baritone_staccato_PP_A3_RR1.opus
</region>

<region>
hikey=B4
hivel=45
lokey=A4
lovel=0
pitch_keycenter=A4
sample=Baritone_staccato_PP_A4_RR1.opus
</region>

<region>
hivel=45
key=B3
lovel=0
sample=Baritone_staccato_PP_B3_RR1.opus
</region>

<region>
hivel=45
key=C#4
lovel=0
sample=Baritone_staccato_PP_C#4_RR1.opus
</region>

<region>
hivel=45
key=C4
lovel=0
sample=Baritone_staccato_PP_C4_RR1.opus
</region>

<region>
hivel=45
key=D#4
lovel=0
sample=Baritone_staccato_PP_D#4_RR1.opus
</region>

<region>
hivel=45
key=D4
lovel=0
sample=Baritone_staccato_PP_D4_RR1.opus
</region>

<region>
hivel=45
key=E4
lovel=0
sample=Baritone_staccato_PP_E4_RR1.opus
</region>

<region>
hivel=45
key=F#4
lovel=0
sample=Baritone_staccato_PP_F#4_RR1.opus
</region>

<region>
hivel=45
key=F4
lovel=0
sample=Baritone_staccato_PP_F4_RR1.opus
</region>

<region>
hivel=45
key=G#3
lovel=0
sample=Baritone_staccato_PP_G#3_RR1.opus
</region>

<region>
hivel=45
key=G#4
lovel=0
sample=Baritone_staccato_PP_G#4_RR1.opus
</region>

<region>
hivel=45
key=G3
lovel=0
sample=Baritone_staccato_PP_G3_RR1.opus
</region>

<region>
hivel=45
key=G4
lovel=0
sample=Baritone_staccato_PP_G4_RR1.opus
</region>

<region>
hivel=45
key=C#3
lovel=0
sample=Baritone_staccato_PP_C#3_RR1.opus
</region>

<region>
hivel=45
key=D#3
lovel=0
sample=Baritone_staccato_PP_D#3_RR1.opus
</region>

<region>
hivel=45
key=D3
lovel=0
sample=Baritone_staccato_PP_D3_RR1.opus
</region>

<region>
hivel=45
key=E3
lovel=0
sample=Baritone_staccato_PP_E3_RR1.opus
</region>

<region>
hivel=45
key=F#3
lovel=0
sample=Baritone_staccato_PP_F#3_RR1.opus
</region>

<region>
hivel=45
key=F3
lovel=0
sample=Baritone_staccato_PP_F3_RR1.opus
</region>

<region>
hivel=45
key=A#2
lovel=0
sample=Baritone_staccato_PP_A#2_RR1.opus
</region>

<region>
hivel=45
key=A2
lovel=0
sample=Baritone_staccato_PP_A2_RR1.opus
</region>

<region>
hivel=45
key=B2
lovel=0
sample=Baritone_staccato_PP_B2_RR1.opus
</region>

<region>
hivel=45
key=C3
lovel=0
sample=Baritone_staccato_PP_C3_RR1.opus
</region>

<region>
hivel=45
key=D#2
lovel=0
sample=Baritone_staccato_PP_D#2_RR1.opus
</region>

<region>
hivel=45
key=E2
lovel=0
sample=Baritone_staccato_PP_E2_RR1.opus
</region>

<region>
hivel=45
key=F#2
lovel=0
sample=Baritone_staccato_PP_F#2_RR1.opus
</region>

<region>
hivel=45
key=F2
lovel=0
sample=Baritone_staccato_PP_F2_RR1.opus
</region>

<region>
hivel=45
key=G#2
lovel=0
sample=Baritone_staccato_PP_G#2_RR1.opus
</region>

<region>
hivel=45
key=G2
lovel=0
sample=Baritone_staccato_PP_G2_RR1.opus
</region>

<region>
hivel=45
key=C#2
lovel=0
sample=Baritone_staccato_PP_C#2_RR1.opus
</region>

<region>
hivel=45
key=C2
lovel=0
sample=Baritone_staccato_PP_C2_RR1.opus
</region>

<region>
hivel=45
key=D2
lovel=0
sample=Baritone_staccato_PP_D2_RR1.opus
</region>
</group>

<group>
group_label=RR2
seq_length=4
seq_position=2

<region>
hivel=90
key=A#3
lovel=46
sample=Baritone_staccato_MF_A#3_RR2.opus
</region>

<region>
hivel=90
key=A3
lovel=46
sample=Baritone_staccato_MF_A3_RR2.opus
</region>

<region>
hikey=B4
hivel=90
lokey=A4
lovel=46
pitch_keycenter=A4
sample=Baritone_staccato_MF_A4_RR2.opus
</region>

<region>
hivel=90
key=B3
lovel=46
sample=Baritone_staccato_MF_B3_RR2.opus
</region>

<region>
hivel=90
key=C#4
lovel=46
sample=Baritone_staccato_MF_C#4_RR2.opus
</region>

<region>
hivel=90
key=C4
lovel=46
sample=Baritone_staccato_MF_C4_RR2.opus
</region>

<region>
hivel=90
key=D#4
lovel=46
offset=26
sample=Baritone_staccato_MF_D#4_RR2.opus
</region>

<region>
hivel=90
key=D4
lovel=46
offset=26
sample=Baritone_staccato_MF_D4_RR2.opus
</region>

<region>
hivel=90
key=E4
lovel=46
sample=Baritone_staccato_MF_E4_RR2.opus
</region>

<region>
hivel=90
key=F#4
lovel=46
sample=Baritone_staccato_MF_F#4_RR2.opus
</region>

<region>
hivel=90
key=F4
lovel=46
offset=83
sample=Baritone_staccato_MF_F4_RR2.opus
</region>

<region>
hivel=90
key=G#4
lovel=46
offset=320
sample=Baritone_staccato_MF_G#4_RR2.opus
</region>

<region>
hivel=90
key=G4
lovel=46
offset=351
sample=Baritone_staccato_MF_G4_RR2.opus
</region>

<region>
hivel=90
key=F#3
lovel=46
sample=Baritone_staccato_MF_F#3_RR2.opus
</region>

<region>
hivel=90
key=G#3
lovel=46
offset=84
sample=Baritone_staccato_MF_G#3_RR2.opus
</region>

<region>
hivel=90
key=G3
lovel=46
sample=Baritone_staccato_MF_G3_RR2.opus
</region>

<region>
hivel=90
key=D#3
lovel=46
sample=Baritone_staccato_MF_D#3_RR2.opus
</region>

<region>
hivel=90
key=E3
lovel=46
sample=Baritone_staccato_MF_E3_RR2.opus
</region>

<region>
hivel=90
key=F3
lovel=46
offset=95
sample=Baritone_staccato_MF_F3_RR2.opus
</region>

<region>
hivel=90
key=A#2
lovel=46
sample=Baritone_staccato_MF_A#2_RR2.opus
</region>

<region>
hivel=90
key=A2
lovel=46
sample=Baritone_staccato_MF_A2_RR2.opus
</region>

<region>
hivel=90
key=B2
lovel=46
sample=Baritone_staccato_MF_B2_RR2.opus
</region>

<region>
hivel=90
key=C#3
lovel=46
sample=Baritone_staccato_MF_C#3_RR2.opus
</region>

<region>
hivel=90
key=C3
lovel=46
sample=Baritone_staccato_MF_C3_RR2.opus
</region>

<region>
hivel=90
key=D3
lovel=46
sample=Baritone_staccato_MF_D3_RR2.opus
</region>

<region>
hivel=90
key=E2
lovel=46
sample=Baritone_staccato_MF_E2_RR2.opus
</region>

<region>
hivel=90
key=F#2
lovel=46
offset=170
sample=Baritone_staccato_MF_F#2_RR2.opus
</region>

<region>
hivel=90
key=F2
lovel=46
sample=Baritone_staccato_MF_F2_RR2.opus
</region>

<region>
hivel=90
key=G#2
lovel=46
sample=Baritone_staccato_MF_G#2_RR2.opus
</region>

<region>
hivel=90
key=G2
lovel=46
sample=Baritone_staccato_MF_G2_RR2.opus
</region>

<region>
hivel=90
key=C#2
lovel=46
sample=Baritone_staccato_MF_C#2_RR2.opus
</region>

<region>
hivel=90
key=C2
lovel=46
sample=Baritone_staccato_MF_C2_RR2.opus
</region>

<region>
hivel=90
key=D#2
lovel=46
sample=Baritone_staccato_MF_D#2_RR2.opus
</region>

<region>
hivel=90
key=D2
lovel=46
sample=Baritone_staccato_MF_D2_RR2.opus
</region>

<region>
hikey=B4
hivel=127
lokey=A4
lovel=91
pitch_keycenter=A4
sample=Baritone_staccato_FF_A4_RR2.opus
</region>

<region>
hivel=127
key=D#4
lovel=91
offset=297
sample=Baritone_staccato_FF_D#4_RR2.opus
</region>

<region>
hivel=127
key=D4
lovel=91
sample=Baritone_staccato_FF_D4_RR2.opus
</region>

<region>
hivel=127
key=E4
lovel=91
sample=Baritone_staccato_FF_E4_RR2.opus
</region>

<region>
hivel=127
key=F#4
lovel=91
offset=36
sample=Baritone_staccato_FF_F#4_RR2.opus
</region>

<region>
hivel=127
key=F4
lovel=91
sample=Baritone_staccato_FF_F4_RR2.opus
</region>

<region>
hivel=127
key=G#4
lovel=91
sample=Baritone_staccato_FF_G#4_RR2.opus
</region>

<region>
hivel=127
key=G4
lovel=91
offset=152
sample=Baritone_staccato_FF_G4_RR2.opus
</region>

<region>
hivel=127
key=A#3
lovel=91
sample=Baritone_staccato_FF_A#3_RR2.opus
</region>

<region>
hivel=127
key=B3
lovel=91
sample=Baritone_staccato_FF_B3_RR2.opus
</region>

<region>
hivel=127
key=C#4
lovel=91
sample=Baritone_staccato_FF_C#4_RR2.opus
</region>

<region>
hivel=127
key=C4
lovel=91
sample=Baritone_staccato_FF_C4_RR2.opus
</region>

<region>
hivel=127
key=A3
lovel=91
sample=Baritone_staccato_FF_A3_RR2.opus
</region>

<region>
hivel=127
key=G#3
lovel=91
sample=Baritone_staccato_FF_G#3_RR2.opus
</region>

<region>
hivel=127
key=G3
lovel=91
offset=27
sample=Baritone_staccato_FF_G3_RR2.opus
</region>

<region>
hivel=127
key=E3
lovel=91
sample=Baritone_staccato_FF_E3_RR2.opus
</region>

<region>
hivel=127
key=F#3
lovel=91
sample=Baritone_staccato_FF_F#3_RR2.opus
</region>

<region>
hivel=127
key=F3
lovel=91
sample=Baritone_staccato_FF_F3_RR2.opus
</region>

<region>
hivel=127
key=C#3
lovel=91
sample=Baritone_staccato_FF_C#3_RR2.opus
</region>

<region>
hivel=127
key=C3
lovel=91
sample=Baritone_staccato_FF_C3_RR2.opus
</region>

<region>
hivel=127
key=D#3
lovel=91
sample=Baritone_staccato_FF_D#3_RR2.opus
</region>

<region>
hivel=127
key=D3
lovel=91
sample=Baritone_staccato_FF_D3_RR2.opus
</region>

<region>
hivel=127
key=A#2
lovel=91
offset=353
sample=Baritone_staccato_FF_A#2_RR2.opus
</region>

<region>
hivel=127
key=A2
lovel=91
offset=556
sample=Baritone_staccato_FF_A2_RR2.opus
</region>

<region>
hivel=127
key=B2
lovel=91
sample=Baritone_staccato_FF_B2_RR2.opus
</region>

<region>
hivel=127
key=C#2
lovel=91
sample=Baritone_staccato_FF_C#2_RR2.opus
</region>

<region>
hivel=127
key=C2
lovel=91
offset=234
sample=Baritone_staccato_FF_C2_RR2.opus
</region>

<region>
hivel=127
key=D#2
lovel=91
offset=6436
sample=Baritone_staccato_FF_D#2_RR2.opus
</region>

<region>
hivel=127
key=D2
lovel=91
offset=709
sample=Baritone_staccato_FF_D2_RR2.opus
</region>

<region>
hivel=127
key=E2
lovel=91
offset=326
sample=Baritone_staccato_FF_E2_RR2.opus
</region>

<region>
hivel=127
key=F#2
lovel=91
offset=210
sample=Baritone_staccato_FF_F#2_RR2.opus
</region>

<region>
hivel=127
key=F2
lovel=91
offset=123
sample=Baritone_staccato_FF_F2_RR2.opus
</region>

<region>
hivel=127
key=G#2
lovel=91
offset=10
sample=Baritone_staccato_FF_G#2_RR2.opus
</region>

<region>
hivel=127
key=G2
lovel=91
offset=185
sample=Baritone_staccato_FF_G2_RR2.opus
</region>

<region>
hivel=45
key=A#3
lovel=0
sample=Baritone_staccato_PP_A#3_RR2.opus
</region>

<region>
hivel=45
key=A3
lovel=0
sample=Baritone_staccato_PP_A3_RR2.opus
</region>

<region>
hikey=B4
hivel=45
lokey=A4
lovel=0
pitch_keycenter=A4
sample=Baritone_staccato_PP_A4_RR2.opus
</region>

<region>
hivel=45
key=B3
lovel=0
sample=Baritone_staccato_PP_B3_RR2.opus
</region>

<region>
hivel=45
key=C#4
lovel=0
sample=Baritone_staccato_PP_C#4_RR2.opus
</region>

<region>
hivel=45
key=C4
lovel=0
sample=Baritone_staccato_PP_C4_RR2.opus
</region>

<region>
hivel=45
key=D#4
lovel=0
sample=Baritone_staccato_PP_D#4_RR2.opus
</region>

<region>
hivel=45
key=D4
lovel=0
sample=Baritone_staccato_PP_D4_RR2.opus
</region>

<region>
hivel=45
key=E4
lovel=0
sample=Baritone_staccato_PP_E4_RR2.opus
</region>

<region>
hivel=45
key=F#4
lovel=0
sample=Baritone_staccato_PP_F#4_RR2.opus
</region>

<region>
hivel=45
key=F4
lovel=0
sample=Baritone_staccato_PP_F4_RR2.opus
</region>

<region>
hivel=45
key=G#3
lovel=0
sample=Baritone_staccato_PP_G#3_RR2.opus
</region>

<region>
hivel=45
key=G#4
lovel=0
sample=Baritone_staccato_PP_G#4_RR2.opus
</region>

<region>
hivel=45
key=G3
lovel=0
offset=9
sample=Baritone_staccato_PP_G3_RR2.opus
</region>

<region>
hivel=45
key=G4
lovel=0
offset=12
sample=Baritone_staccato_PP_G4_RR2.opus
</region>

<region>
hivel=45
key=C#3
lovel=0
sample=Baritone_staccato_PP_C#3_RR2.opus
</region>

<region>
hivel=45
key=D#3
lovel=0
sample=Baritone_staccato_PP_D#3_RR2.opus
</region>

<region>
hivel=45
key=D3
lovel=0
sample=Baritone_staccato_PP_D3_RR2.opus
</region>

<region>
hivel=45
key=E3
lovel=0
sample=Baritone_staccato_PP_E3_RR2.opus
</region>

<region>
hivel=45
key=F#3
lovel=0
sample=Baritone_staccato_PP_F#3_RR2.opus
</region>

<region>
hivel=45
key=F3
lovel=0
sample=Baritone_staccato_PP_F3_RR2.opus
</region>

<region>
hivel=45
key=A#2
lovel=0
sample=Baritone_staccato_PP_A#2_RR2.opus
</region>

<region>
hivel=45
key=A2
lovel=0
sample=Baritone_staccato_PP_A2_RR2.opus
</region>

<region>
hivel=45
key=B2
lovel=0
sample=Baritone_staccato_PP_B2_RR2.opus
</region>

<region>
hivel=45
key=C3
lovel=0
sample=Baritone_staccato_PP_C3_RR2.opus
</region>

<region>
hivel=45
key=D#2
lovel=0
sample=Baritone_staccato_PP_D#2_RR2.opus
</region>

<region>
hivel=45
key=E2
lovel=0
sample=Baritone_staccato_PP_E2_RR2.opus
</region>

<region>
hivel=45
key=F#2
lovel=0
sample=Baritone_staccato_PP_F#2_RR2.opus
</region>

<region>
hivel=45
key=F2
lovel=0
sample=Baritone_staccato_PP_F2_RR2.opus
</region>

<region>
hivel=45
key=G#2
lovel=0
sample=Baritone_staccato_PP_G#2_RR2.opus
</region>

<region>
hivel=45
key=G2
lovel=0
sample=Baritone_staccato_PP_G2_RR2.opus
</region>

<region>
hivel=45
key=C#2
lovel=0
sample=Baritone_staccato_PP_C#2_RR2.opus
</region>

<region>
hivel=45
key=C2
lovel=0
sample=Baritone_staccato_PP_C2_RR2.opus
</region>

<region>
hivel=45
key=D2
lovel=0
sample=Baritone_staccato_PP_D2_RR2.opus
</region>
</group>

<group>
group_label=RR3
seq_length=4
seq_position=3

<region>
hivel=90
key=A#3
lovel=46
sample=Baritone_staccato_MF_A#3_RR3.opus
</region>

<region>
hivel=90
key=A3
lovel=46
sample=Baritone_staccato_MF_A3_RR3.opus
</region>

<region>
hikey=B4
hivel=90
lokey=A4
lovel=46
offset=51
pitch_keycenter=A4
sample=Baritone_staccato_MF_A4_RR3.opus
</region>

<region>
hivel=90
key=B3
lovel=46
sample=Baritone_staccato_MF_B3_RR3.opus
</region>

<region>
hivel=90
key=C#4
lovel=46
sample=Baritone_staccato_MF_C#4_RR3.opus
</region>

<region>
hivel=90
key=C4
lovel=46
sample=Baritone_staccato_MF_C4_RR3.opus
</region>

<region>
hivel=90
key=D#4
lovel=46
offset=31
sample=Baritone_staccato_MF_D#4_RR3.opus
</region>

<region>
hivel=90
key=D4
lovel=46
offset=28
sample=Baritone_staccato_MF_D4_RR3.opus
</region>

<region>
hivel=90
key=E4
lovel=46
offset=105
sample=Baritone_staccato_MF_E4_RR3.opus
</region>

<region>
hivel=90
key=F#4
lovel=46
offset=139
sample=Baritone_staccato_MF_F#4_RR3.opus
</region>

<region>
hivel=90
key=F4
lovel=46
offset=71
sample=Baritone_staccato_MF_F4_RR3.opus
</region>

<region>
hivel=90
key=G#4
lovel=46
offset=349
sample=Baritone_staccato_MF_G#4_RR3.opus
</region>

<region>
hivel=90
key=G4
lovel=46
sample=Baritone_staccato_MF_G4_RR3.opus
</region>

<region>
hivel=90
key=F#3
lovel=46
sample=Baritone_staccato_MF_F#3_RR3.opus
</region>

<region>
hivel=90
key=G#3
lovel=46
sample=Baritone_staccato_MF_G#3_RR3.opus
</region>

<region>
hivel=90
key=G3
lovel=46
offset=26
sample=Baritone_staccato_MF_G3_RR3.opus
</region>

<region>
hivel=90
key=D#3
lovel=46
sample=Baritone_staccato_MF_D#3_RR3.opus
</region>

<region>
hivel=90
key=E3
lovel=46
sample=Baritone_staccato_MF_E3_RR3.opus
</region>

<region>
hivel=90
key=F3
lovel=46
sample=Baritone_staccato_MF_F3_RR3.opus
</region>

<region>
hivel=90
key=A#2
lovel=46
sample=Baritone_staccato_MF_A#2_RR3.opus
</region>

<region>
hivel=90
key=A2
lovel=46
sample=Baritone_staccato_MF_A2_RR3.opus
</region>

<region>
hivel=90
key=B2
lovel=46
sample=Baritone_staccato_MF_B2_RR3.opus
</region>

<region>
hivel=90
key=C#3
lovel=46
sample=Baritone_staccato_MF_C#3_RR3.opus
</region>

<region>
hivel=90
key=C3
lovel=46
sample=Baritone_staccato_MF_C3_RR3.opus
</region>

<region>
hivel=90
key=D3
lovel=46
sample=Baritone_staccato_MF_D3_RR3.opus
</region>

<region>
hivel=90
key=E2
lovel=46
sample=Baritone_staccato_MF_E2_RR3.opus
</region>

<region>
hivel=90
key=F#2
lovel=46
sample=Baritone_staccato_MF_F#2_RR3.opus
</region>

<region>
hivel=90
key=F2
lovel=46
sample=Baritone_staccato_MF_F2_RR3.opus
</region>

<region>
hivel=90
key=G#2
lovel=46
sample=Baritone_staccato_MF_G#2_RR3.opus
</region>

<region>
hivel=90
key=G2
lovel=46
sample=Baritone_staccato_MF_G2_RR3.opus
</region>

<region>
hivel=90
key=C#2
lovel=46
sample=Baritone_staccato_MF_C#2_RR3.opus
</region>

<region>
hivel=90
key=C2
lovel=46
sample=Baritone_staccato_MF_C2_RR3.opus
</region>

<region>
hivel=90
key=D#2
lovel=46
sample=Baritone_staccato_MF_D#2_RR3.opus
</region>

<region>
hivel=90
key=D2
lovel=46
sample=Baritone_staccato_MF_D2_RR3.opus
</region>

<region>
hikey=B4
hivel=127
lokey=A4
lovel=91
pitch_keycenter=A4
sample=Baritone_staccato_FF_A4_RR3.opus
</region>

<region>
hivel=127
key=D#4
lovel=91
offset=168
sample=Baritone_staccato_FF_D#4_RR3.opus
</region>

<region>
hivel=127
key=D4
lovel=91
offset=29
sample=Baritone_staccato_FF_D4_RR3.opus
</region>

<region>
hivel=127
key=E4
lovel=91
sample=Baritone_staccato_FF_E4_RR3.opus
</region>

<region>
hivel=127
key=F#4
lovel=91
offset=169
sample=Baritone_staccato_FF_F#4_RR3.opus
</region>

<region>
hivel=127
key=F4
lovel=91
offset=111
sample=Baritone_staccato_FF_F4_RR3.opus
</region>

<region>
hivel=127
key=G#4
lovel=91
offset=209
sample=Baritone_staccato_FF_G#4_RR3.opus
</region>

<region>
hivel=127
key=G4
lovel=91
offset=238
sample=Baritone_staccato_FF_G4_RR3.opus
</region>

<region>
hivel=127
key=A#3
lovel=91
sample=Baritone_staccato_FF_A#3_RR3.opus
</region>

<region>
hivel=127
key=B3
lovel=91
sample=Baritone_staccato_FF_B3_RR3.opus
</region>

<region>
hivel=127
key=C#4
lovel=91
sample=Baritone_staccato_FF_C#4_RR3.opus
</region>

<region>
hivel=127
key=C4
lovel=91
sample=Baritone_staccato_FF_C4_RR3.opus
</region>

<region>
hivel=127
key=A3
lovel=91
sample=Baritone_staccato_FF_A3_RR3.opus
</region>

<region>
hivel=127
key=G#3
lovel=91
sample=Baritone_staccato_FF_G#3_RR3.opus
</region>

<region>
hivel=127
key=G3
lovel=91
sample=Baritone_staccato_FF_G3_RR3.opus
</region>

<region>
hivel=127
key=E3
lovel=91
sample=Baritone_staccato_FF_E3_RR3.opus
</region>

<region>
hivel=127
key=F#3
lovel=91
sample=Baritone_staccato_FF_F#3_RR3.opus
</region>

<region>
hivel=127
key=F3
lovel=91
sample=Baritone_staccato_FF_F3_RR3.opus
</region>

<region>
hivel=127
key=C#3
lovel=91
sample=Baritone_staccato_FF_C#3_RR3.opus
</region>

<region>
hivel=127
key=C3
lovel=91
sample=Baritone_staccato_FF_C3_RR3.opus
</region>

<region>
hivel=127
key=D#3
lovel=91
sample=Baritone_staccato_FF_D#3_RR3.opus
</region>

<region>
hivel=127
key=D3
lovel=91
sample=Baritone_staccato_FF_D3_RR3.opus
</region>

<region>
hivel=127
key=A#2
lovel=91
offset=53
sample=Baritone_staccato_FF_A#2_RR3.opus
</region>

<region>
hivel=127
key=A2
lovel=91
sample=Baritone_staccato_FF_A2_RR3.opus
</region>

<region>
hivel=127
key=B2
lovel=91
offset=298
sample=Baritone_staccato_FF_B2_RR3.opus
</region>

<region>
hivel=127
key=C#2
lovel=91
offset=297
sample=Baritone_staccato_FF_C#2_RR3.opus
</region>

<region>
hivel=127
key=C2
lovel=91
offset=333
sample=Baritone_staccato_FF_C2_RR3.opus
</region>

<region>
hivel=127
key=D#2
lovel=91
offset=182
sample=Baritone_staccato_FF_D#2_RR3.opus
</region>

<region>
hivel=127
key=D2
lovel=91
offset=482
sample=Baritone_staccato_FF_D2_RR3.opus
</region>

<region>
hivel=127
key=E2
lovel=91
offset=125
sample=Baritone_staccato_FF_E2_RR3.opus
</region>

<region>
hivel=127
key=F#2
lovel=91
offset=407
sample=Baritone_staccato_FF_F#2_RR3.opus
</region>

<region>
hivel=127
key=F2
lovel=91
offset=392
sample=Baritone_staccato_FF_F2_RR3.opus
</region>

<region>
hivel=127
key=G#2
lovel=91
offset=303
sample=Baritone_staccato_FF_G#2_RR3.opus
</region>

<region>
hivel=127
key=G2
lovel=91
offset=242
sample=Baritone_staccato_FF_G2_RR3.opus
</region>

<region>
hivel=45
key=A#3
lovel=0
sample=Baritone_staccato_PP_A#3_RR3.opus
</region>

<region>
hivel=45
key=A3
lovel=0
sample=Baritone_staccato_PP_A3_RR3.opus
</region>

<region>
hikey=B4
hivel=45
lokey=A4
lovel=0
pitch_keycenter=A4
sample=Baritone_staccato_PP_A4_RR3.opus
</region>

<region>
hivel=45
key=B3
lovel=0
sample=Baritone_staccato_PP_B3_RR3.opus
</region>

<region>
hivel=45
key=C#4
lovel=0
sample=Baritone_staccato_PP_C#4_RR3.opus
</region>

<region>
hivel=45
key=C4
lovel=0
sample=Baritone_staccato_PP_C4_RR3.opus
</region>

<region>
hivel=45
key=D#4
lovel=0
sample=Baritone_staccato_PP_D#4_RR3.opus
</region>

<region>
hivel=45
key=D4
lovel=0
sample=Baritone_staccato_PP_D4_RR3.opus
</region>

<region>
hivel=45
key=E4
lovel=0
sample=Baritone_staccato_PP_E4_RR3.opus
</region>

<region>
hivel=45
key=F#4
lovel=0
sample=Baritone_staccato_PP_F#4_RR3.opus
</region>

<region>
hivel=45
key=F4
lovel=0
sample=Baritone_staccato_PP_F4_RR3.opus
</region>

<region>
hivel=45
key=G#3
lovel=0
sample=Baritone_staccato_PP_G#3_RR3.opus
</region>

<region>
hivel=45
key=G#4
lovel=0
sample=Baritone_staccato_PP_G#4_RR3.opus
</region>

<region>
hivel=45
key=G3
lovel=0
offset=10
sample=Baritone_staccato_PP_G3_RR3.opus
</region>

<region>
hivel=45
key=G4
lovel=0
sample=Baritone_staccato_PP_G4_RR3.opus
</region>

<region>
hivel=45
key=C#3
lovel=0
sample=Baritone_staccato_PP_C#3_RR3.opus
</region>

<region>
hivel=45
key=D#3
lovel=0
sample=Baritone_staccato_PP_D#3_RR3.opus
</region>

<region>
hivel=45
key=D3
lovel=0
sample=Baritone_staccato_PP_D3_RR3.opus
</region>

<region>
hivel=45
key=E3
lovel=0
sample=Baritone_staccato_PP_E3_RR3.opus
</region>

<region>
hivel=45
key=F#3
lovel=0
sample=Baritone_staccato_PP_F#3_RR3.opus
</region>

<region>
hivel=45
key=F3
lovel=0
offset=70
sample=Baritone_staccato_PP_F3_RR3.opus
</region>

<region>
hivel=45
key=A#2
lovel=0
sample=Baritone_staccato_PP_A#2_RR3.opus
</region>

<region>
hivel=45
key=A2
lovel=0
sample=Baritone_staccato_PP_A2_RR3.opus
</region>

<region>
hivel=45
key=B2
lovel=0
sample=Baritone_staccato_PP_B2_RR3.opus
</region>

<region>
hivel=45
key=C3
lovel=0
sample=Baritone_staccato_PP_C3_RR3.opus
</region>

<region>
hivel=45
key=D#2
lovel=0
sample=Baritone_staccato_PP_D#2_RR3.opus
</region>

<region>
hivel=45
key=E2
lovel=0
sample=Baritone_staccato_PP_E2_RR3.opus
</region>

<region>
hivel=45
key=F#2
lovel=0
sample=Baritone_staccato_PP_F#2_RR3.opus
</region>

<region>
hivel=45
key=F2
lovel=0
sample=Baritone_staccato_PP_F2_RR3.opus
</region>

<region>
hivel=45
key=G#2
lovel=0
sample=Baritone_staccato_PP_G#2_RR3.opus
</region>

<region>
hivel=45
key=G2
lovel=0
sample=Baritone_staccato_PP_G2_RR3.opus
</region>

<region>
hivel=45
key=C#2
lovel=0
sample=Baritone_staccato_PP_C#2_RR3.opus
</region>

<region>
hivel=45
key=C2
lovel=0
sample=Baritone_staccato_PP_C2_RR3.opus
</region>

<region>
hivel=45
key=D2
lovel=0
sample=Baritone_staccato_PP_D2_RR3.opus
</region>
</group>

<group>
group_label=RR4
seq_length=4
seq_position=4

<region>
hivel=90
key=A#3
lovel=46
sample=Baritone_staccato_MF_A#3_RR4.opus
</region>

<region>
hivel=90
key=A3
lovel=46
sample=Baritone_staccato_MF_A3_RR4.opus
</region>

<region>
hikey=B4
hivel=90
lokey=A4
lovel=46
pitch_keycenter=A4
sample=Baritone_staccato_MF_A4_RR4.opus
</region>

<region>
hivel=90
key=B3
lovel=46
sample=Baritone_staccato_MF_B3_RR4.opus
</region>

<region>
hivel=90
key=C#4
lovel=46
sample=Baritone_staccato_MF_C#4_RR4.opus
</region>

<region>
hivel=90
key=C4
lovel=46
sample=Baritone_staccato_MF_C4_RR4.opus
</region>

<region>
hivel=90
key=D#4
lovel=46
offset=14
sample=Baritone_staccato_MF_D#4_RR4.opus
</region>

<region>
hivel=90
key=D4
lovel=46
sample=Baritone_staccato_MF_D4_RR4.opus
</region>

<region>
hivel=90
key=E4
lovel=46
sample=Baritone_staccato_MF_E4_RR4.opus
</region>

<region>
hivel=90
key=F#4
lovel=46
offset=26
sample=Baritone_staccato_MF_F#4_RR4.opus
</region>

<region>
hivel=90
key=F4
lovel=46
offset=239
sample=Baritone_staccato_MF_F4_RR4.opus
</region>

<region>
hivel=90
key=G#4
lovel=46
sample=Baritone_staccato_MF_G#4_RR4.opus
</region>

<region>
hivel=90
key=G4
lovel=46
offset=5
sample=Baritone_staccato_MF_G4_RR4.opus
</region>

<region>
hivel=90
key=F#3
lovel=46
sample=Baritone_staccato_MF_F#3_RR4.opus
</region>

<region>
hivel=90
key=G#3
lovel=46
sample=Baritone_staccato_MF_G#3_RR4.opus
</region>

<region>
hivel=90
key=G3
lovel=46
sample=Baritone_staccato_MF_G3_RR4.opus
</region>

<region>
hivel=90
key=D#3
lovel=46
offset=111
sample=Baritone_staccato_MF_D#3_RR4.opus
</region>

<region>
hivel=90
key=E3
lovel=46
sample=Baritone_staccato_MF_E3_RR4.opus
</region>

<region>
hivel=90
key=F3
lovel=46
sample=Baritone_staccato_MF_F3_RR4.opus
</region>

<region>
hivel=90
key=A#2
lovel=46
sample=Baritone_staccato_MF_A#2_RR4.opus
</region>

<region>
hivel=90
key=A2
lovel=46
sample=Baritone_staccato_MF_A2_RR4.opus
</region>

<region>
hivel=90
key=B2
lovel=46
sample=Baritone_staccato_MF_B2_RR4.opus
</region>

<region>
hivel=90
key=C#3
lovel=46
sample=Baritone_staccato_MF_C#3_RR4.opus
</region>

<region>
hivel=90
key=C3
lovel=46
sample=Baritone_staccato_MF_C3_RR4.opus
</region>

<region>
hivel=90
key=D3
lovel=46
sample=Baritone_staccato_MF_D3_RR4.opus
</region>

<region>
hivel=90
key=E2
lovel=46
sample=Baritone_staccato_MF_E2_RR4.opus
</region>

<region>
hivel=90
key=F#2
lovel=46
sample=Baritone_staccato_MF_F#2_RR4.opus
</region>

<region>
hivel=90
key=F2
lovel=46
sample=Baritone_staccato_MF_F2_RR4.opus
</region>

<region>
hivel=90
key=G#2
lovel=46
sample=Baritone_staccato_MF_G#2_RR4.opus
</region>

<region>
hivel=90
key=G2
lovel=46
sample=Baritone_staccato_MF_G2_RR4.opus
</region>

<region>
hivel=90
key=C#2
lovel=46
sample=Baritone_staccato_MF_C#2_RR4.opus
</region>

<region>
hivel=90
key=C2
lovel=46
offset=303
sample=Baritone_staccato_MF_C2_RR4.opus
</region>

<region>
hivel=90
key=D#2
lovel=46
sample=Baritone_staccato_MF_D#2_RR4.opus
</region>

<region>
hivel=90
key=D2
lovel=46
offset=443
sample=Baritone_staccato_MF_D2_RR4.opus
</region>

<region>
hikey=B4
hivel=127
lokey=A4
lovel=91
offset=19
pitch_keycenter=A4
sample=Baritone_staccato_FF_A4_RR4.opus
</region>

<region>
hivel=127
key=D#4
lovel=91
sample=Baritone_staccato_FF_D#4_RR4.opus
</region>

<region>
hivel=127
key=D4
lovel=91
offset=200
sample=Baritone_staccato_FF_D4_RR4.opus
</region>

<region>
hivel=127
key=E4
lovel=91
offset=91
sample=Baritone_staccato_FF_E4_RR4.opus
</region>

<region>
hivel=127
key=F#4
lovel=91
offset=47
sample=Baritone_staccato_FF_F#4_RR4.opus
</region>

<region>
hivel=127
key=F4
lovel=91
sample=Baritone_staccato_FF_F4_RR4.opus
</region>

<region>
hivel=127
key=G#4
lovel=91
offset=201
sample=Baritone_staccato_FF_G#4_RR4.opus
</region>

<region>
hivel=127
key=G4
lovel=91
offset=237
sample=Baritone_staccato_FF_G4_RR4.opus
</region>

<region>
hivel=127
key=A#3
lovel=91
sample=Baritone_staccato_FF_A#3_RR4.opus
</region>

<region>
hivel=127
key=B3
lovel=91
sample=Baritone_staccato_FF_B3_RR4.opus
</region>

<region>
hivel=127
key=C#4
lovel=91
sample=Baritone_staccato_FF_C#4_RR4.opus
</region>

<region>
hivel=127
key=C4
lovel=91
sample=Baritone_staccato_FF_C4_RR4.opus
</region>

<region>
hivel=127
key=A3
lovel=91
sample=Baritone_staccato_FF_A3_RR4.opus
</region>

<region>
hivel=127
key=G#3
lovel=91
sample=Baritone_staccato_FF_G#3_RR4.opus
</region>

<region>
hivel=127
key=G3
lovel=91
sample=Baritone_staccato_FF_G3_RR4.opus
</region>

<region>
hivel=127
key=E3
lovel=91
sample=Baritone_staccato_FF_E3_RR4.opus
</region>

<region>
hivel=127
key=F#3
lovel=91
sample=Baritone_staccato_FF_F#3_RR4.opus
</region>

<region>
hivel=127
key=F3
lovel=91
sample=Baritone_staccato_FF_F3_RR4.opus
</region>

<region>
hivel=127
key=C#3
lovel=91
sample=Baritone_staccato_FF_C#3_RR4.opus
</region>

<region>
hivel=127
key=C3
lovel=91
offset=62
sample=Baritone_staccato_FF_C3_RR4.opus
</region>

<region>
hivel=127
key=D#3
lovel=91
sample=Baritone_staccato_FF_D#3_RR4.opus
</region>

<region>
hivel=127
key=D3
lovel=91
sample=Baritone_staccato_FF_D3_RR4.opus
</region>

<region>
hivel=127
key=A#2
lovel=91
sample=Baritone_staccato_FF_A#2_RR4.opus
</region>

<region>
hivel=127
key=A2
lovel=91
offset=6
sample=Baritone_staccato_FF_A2_RR4.opus
</region>

<region>
hivel=127
key=B2
lovel=91
sample=Baritone_staccato_FF_B2_RR4.opus
</region>

<region>
hivel=127
key=C#2
lovel=91
offset=646
sample=Baritone_staccato_FF_C#2_RR4.opus
</region>

<region>
hivel=127
key=C2
lovel=91
offset=320
sample=Baritone_staccato_FF_C2_RR4.opus
</region>

<region>
hivel=127
key=D#2
lovel=91
sample=Baritone_staccato_FF_D#2_RR4.opus
</region>

<region>
hivel=127
key=D2
lovel=91
offset=712
sample=Baritone_staccato_FF_D2_RR4.opus
</region>

<region>
hivel=127
key=E2
lovel=91
sample=Baritone_staccato_FF_E2_RR4.opus
</region>

<region>
hivel=127
key=F#2
lovel=91
offset=263
sample=Baritone_staccato_FF_F#2_RR4.opus
</region>

<region>
hivel=127
key=F2
lovel=91
offset=269
sample=Baritone_staccato_FF_F2_RR4.opus
</region>

<region>
hivel=127
key=G#2
lovel=91
offset=719
sample=Baritone_staccato_FF_G#2_RR4.opus
</region>

<region>
hivel=127
key=G2
lovel=91
offset=542
sample=Baritone_staccato_FF_G2_RR4.opus
</region>

<region>
hivel=45
key=A#3
lovel=0
sample=Baritone_staccato_PP_A#3_RR4.opus
</region>

<region>
hivel=45
key=A3
lovel=0
sample=Baritone_staccato_PP_A3_RR4.opus
</region>

<region>
hikey=B4
hivel=45
lokey=A4
lovel=0
pitch_keycenter=A4
sample=Baritone_staccato_PP_A4_RR4.opus
</region>

<region>
hivel=45
key=B3
lovel=0
sample=Baritone_staccato_PP_B3_RR4.opus
</region>

<region>
hivel=45
key=C#4
lovel=0
sample=Baritone_staccato_PP_C#4_RR4.opus
</region>

<region>
hivel=45
key=C4
lovel=0
sample=Baritone_staccato_PP_C4_RR4.opus
</region>

<region>
hivel=45
key=D#4
lovel=0
sample=Baritone_staccato_PP_D#4_RR4.opus
</region>

<region>
hivel=45
key=D4
lovel=0
sample=Baritone_staccato_PP_D4_RR4.opus
</region>

<region>
hivel=45
key=E4
lovel=0
sample=Baritone_staccato_PP_E4_RR4.opus
</region>

<region>
hivel=45
key=F#4
lovel=0
sample=Baritone_staccato_PP_F#4_RR4.opus
</region>

<region>
hivel=45
key=F4
lovel=0
sample=Baritone_staccato_PP_F4_RR4.opus
</region>

<region>
hivel=45
key=G#3
lovel=0
sample=Baritone_staccato_PP_G#3_RR4.opus
</region>

<region>
hivel=45
key=G#4
lovel=0
sample=Baritone_staccato_PP_G#4_RR4.opus
</region>

<region>
hivel=45
key=G3
lovel=0
sample=Baritone_staccato_PP_G3_RR4.opus
</region>

<region>
hivel=45
key=G4
lovel=0
sample=Baritone_staccato_PP_G4_RR4.opus
</region>

<region>
hivel=45
key=C#3
lovel=0
sample=Baritone_staccato_PP_C#3_RR4.opus
</region>

<region>
hivel=45
key=D#3
lovel=0
sample=Baritone_staccato_PP_D#3_RR4.opus
</region>

<region>
hivel=45
key=D3
lovel=0
sample=Baritone_staccato_PP_D3_RR4.opus
</region>

<region>
hivel=45
key=E3
lovel=0
sample=Baritone_staccato_PP_E3_RR4.opus
</region>

<region>
hivel=45
key=F#3
lovel=0
sample=Baritone_staccato_PP_F#3_RR4.opus
</region>

<region>
hivel=45
key=F3
lovel=0
sample=Baritone_staccato_PP_F3_RR4.opus
</region>

<region>
hivel=45
key=A#2
lovel=0
sample=Baritone_staccato_PP_A#2_RR4.opus
</region>

<region>
hivel=45
key=A2
lovel=0
sample=Baritone_staccato_PP_A2_RR4.opus
</region>

<region>
hivel=45
key=C3
lovel=0
sample=Baritone_staccato_PP_C3_RR4.opus
</region>

<region>
hivel=45
key=D#2
lovel=0
sample=Baritone_staccato_PP_D#2_RR4.opus
</region>

<region>
hivel=45
key=E2
lovel=0
sample=Baritone_staccato_PP_E2_RR4.opus
</region>

<region>
hivel=45
key=F#2
lovel=0
sample=Baritone_staccato_PP_F#2_RR4.opus
</region>

<region>
hivel=45
key=F2
lovel=0
sample=Baritone_staccato_PP_F2_RR4.opus
</region>

<region>
hivel=45
key=G#2
lovel=0
sample=Baritone_staccato_PP_G#2_RR4.opus
</region>

<region>
hivel=45
key=G2
lovel=0
sample=Baritone_staccato_PP_G2_RR4.opus
</region>

<region>
hivel=45
key=C#2
lovel=0
sample=Baritone_staccato_PP_C#2_RR4.opus
</region>

<region>
hivel=45
key=C2
lovel=0
sample=Baritone_staccato_PP_C2_RR4.opus
</region>

<region>
hivel=45
key=D2
lovel=0
sample=Baritone_staccato_PP_D2_RR4.opus
</region>

<region>
hivel=45
key=B2
lovel=0
sample=Baritone_staccato_PP_B2_RR4.opus
</region>
</group>